<?xml version="1.0" encoding="UTF-8" standalone="no"?>
<!-- Created with Inkscape (http://www.inkscape.org/) -->

<svg
   width="305.65869mm"
   height="200.3494mm"
   viewBox="0 0 305.65869 200.3494"
   version="1.1"
   id="svg5"
   xml:space="preserve"
   sodipodi:docname="logo.svg"
   inkscape:version="1.2.2 (1:1.2.2+202212051552+b0a8486541)"
   xmlns:inkscape="http://www.inkscape.org/namespaces/inkscape"
   xmlns:sodipodi="http://sodipodi.sourceforge.net/DTD/sodipodi-0.dtd"
   xmlns="http://www.w3.org/2000/svg"
   xmlns:svg="http://www.w3.org/2000/svg"><sodipodi:namedview
     id="namedview7"
     pagecolor="#ffffff"
     bordercolor="#999999"
     borderopacity="1"
     inkscape:showpageshadow="0"
     inkscape:pageopacity="0"
     inkscape:pagecheckerboard="0"
     inkscape:deskcolor="#d1d1d1"
     inkscape:document-units="mm"
     showgrid="false"
     inkscape:zoom="0.37268421"
     inkscape:cx="563.47973"
     inkscape:cy="501.76529"
     inkscape:window-width="1128"
     inkscape:window-height="688"
     inkscape:window-x="0"
     inkscape:window-y="0"
     inkscape:window-maximized="1"
     inkscape:current-layer="g1548" /><defs
     id="defs2" /><g
     inkscape:label="Layer 1"
     inkscape:groupmode="layer"
     id="layer1"
     transform="translate(-13.026907,-73.051059)"><g
       id="g1548"
       inkscape:export-filename="g1548.png"
       inkscape:export-xdpi="77.459045"
       inkscape:export-ydpi="77.459045"><g
         id="g493"
         inkscape:export-filename="logo.png"
         inkscape:export-xdpi="24.92977"
         inkscape:export-ydpi="24.92977"><path
           d="M 175.51195,139.03823 H 23.283045 c -5.663947,0 -10.256138,4.59215 -10.256138,10.25612 v 47.86193 c 0,5.66397 4.592191,10.25614 10.256138,10.25614 H 175.51195 v 39.36562 c 0,18.27471 22.09426,27.42661 35.01699,14.50472 l 73.55272,-73.55272 c 8.01089,-8.01089 8.01089,-20.99854 0,-29.0086 L 210.52894,85.168723 C 197.60708,72.246868 175.51195,81.398755 175.51195,99.673474 Z"
           id="path711"
           style="fill:#cccccc;stroke-width:0.854676"
           sodipodi:nodetypes="csssscscscssc" /><g
           id="g769"
           transform="translate(0,4.6376293)"><g
             id="g123"
             transform="matrix(0.45922046,0,0,0.45922046,228.79342,18.469307)"><rect
               width="198"
               height="118"
               x="-453.25211"
               y="267.89923"
               ry="10"
               stroke="#000000"
               stroke-width="10"
               fill="none"
               id="rect111"
               inkscape:label="rect111"
               style="display:inline;fill:#ffffff" /><path
               d="m -428.25212,360.89923 v -68 h 20 l 20,25 20,-25 h 20 v 68 h -20 v -39 l -20,25 -20,-25 v 39 z m 125,0 -30,-33 h 20 v -35 h 20 v 35 h 20 z"
               id="path113" /></g><g
             id="g625"><g
               id="icon_PDF_file"
               transform="matrix(0.26458333,0,0,0.26458333,148.06997,172.2833)">
	<g
   id="contour_1">
		<polygon
   fill="#ffffff"
   points="51.791,356.646 51.791,23.99 204.497,23.99 282.646,102.066 282.646,356.646 "
   id="polygon125" />
		<path
   d="m 201.186,31.99 73.46,73.393 V 348.647 H 59.791 V 31.99 h 141.395 m 6.623,-16 H 43.791 V 364.647 H 290.645 V 98.75 Z"
   id="path127" />
	</g>
	<g
   id="contour_2">
		<polygon
   fill="#ffffff"
   points="51.791,356.646 51.791,23.99 204.497,23.99 206.309,25.8 206.309,100.327 280.904,100.327 282.646,102.066 282.646,356.646 "
   id="polygon130" />
		<path
   d="m 198.309,31.99 v 60.337 16 h 16 60.337 v 240.32 H 59.791 V 31.99 h 138.518 m 9.5,-16 H 43.791 V 364.647 H 290.645 V 98.75 l -6.43,-6.424 H 214.308 V 22.484 Z"
   id="path132" />
	</g>
	<g
   id="triangle">
		<polygon
   points="219.643,87.75 219.643,48.667 258.309,86.38 258.309,87.75 "
   id="polygon135" />
		<path
   d="m 227.643,67.646 12.41,12.104 h -12.41 V 67.646 M 222.641,40.417 H 211.643 V 95.75 h 54.666 V 83.008 Z"
   id="path137" />
	</g>
	<g
   id="blue_square">
		<polygon
   fill="#0000cd"
   points="22.544,284.49 22.544,167.682 37.291,152.935 37.291,171.489 297.146,171.489 297.146,152.935 311.893,167.682 311.893,284.49 "
   id="polygon140" />
		<path
   fill="#0000cd"
   d="m 303.646,168.627 1.747,1.747 V 277.99 H 29.044 V 170.374 l 1.747,-1.747 v 9.362 h 13 246.854 13 v -9.362 m -12.999,-31.385 v 27.747 H 43.791 V 137.242 L 16.044,164.989 V 290.99 H 318.393 V 164.989 Z"
   id="path142" />
	</g>
	<rect
   x="52.096001"
   y="189.32401"
   fill="none"
   width="232.826"
   height="87.834"
   id="rect145" />
	<text
   id="HTML"
   transform="translate(30.1118,263.2559)"
   fill="#ffffff"
   font-family="'DejaVu Sans'"
   font-weight="bold"
   font-size="86px">HTML</text>
</g><g
               id="icon_PDF_file-3"
               transform="matrix(0.26458333,0,0,0.26458333,148.06997,64.182742)">
	<g
   id="contour_1-6">
		<polygon
   fill="#ffffff"
   points="51.791,356.646 51.791,23.99 204.497,23.99 282.646,102.066 282.646,356.646 "
   id="polygon170" />
		<path
   d="m 201.186,31.99 73.46,73.393 V 348.647 H 59.791 V 31.99 h 141.395 m 6.623,-16 H 43.791 V 364.647 H 290.645 V 98.75 Z"
   id="path172" />
	</g>
	<g
   id="contour_2-7">
		<polygon
   fill="#ffffff"
   points="206.309,100.327 280.904,100.327 282.646,102.066 282.646,356.646 51.791,356.646 51.791,23.99 204.497,23.99 206.309,25.8 "
   id="polygon175" />
		<path
   d="m 198.309,31.99 v 60.337 16 h 16 60.337 v 240.32 H 59.791 V 31.99 h 138.518 m 9.5,-16 H 43.791 V 364.647 H 290.645 V 98.75 l -6.43,-6.424 H 214.308 V 22.484 Z"
   id="path177" />
	</g>
	<g
   id="triangle-5">
		<polygon
   points="219.643,87.75 219.643,48.667 258.309,86.38 258.309,87.75 "
   id="polygon180" />
		<path
   d="m 227.643,67.646 12.41,12.104 h -12.41 V 67.646 M 222.641,40.417 H 211.643 V 95.75 h 54.666 V 83.008 Z"
   id="path182" />
	</g>
	<g
   id="red_square">
		<polygon
   fill="#ed1c24"
   points="297.146,171.489 297.146,152.935 311.893,167.682 311.893,284.49 22.544,284.49 22.544,167.682 37.291,152.935 37.291,171.489 "
   id="polygon185" />
		<path
   fill="#ed1c24"
   d="m 303.646,168.627 1.747,1.747 V 277.99 H 29.044 V 170.374 l 1.747,-1.747 v 9.362 h 13 246.854 13 v -9.362 m -12.999,-31.385 v 27.747 H 43.791 V 137.242 L 16.044,164.989 V 290.99 H 318.393 V 164.989 Z"
   id="path187" />
	</g>
	<rect
   x="52.096001"
   y="189.32401"
   fill="none"
   width="232.826"
   height="87.834"
   id="rect190" />
	<text
   transform="translate(52.0957,271.6621)"
   fill="#ffffff"
   font-family="'DejaVu Sans'"
   font-weight="bold"
   font-size="105px"
   id="text192">PDF</text>
</g><g
               id="icon_EPUB_file"
               transform="matrix(0.26458333,0,0,0.26458333,234.4441,118.23302)">
	<g
   id="contour_1-3">
		<polygon
   fill="#ffffff"
   points="51.791,356.646 51.791,23.99 204.497,23.99 282.646,102.066 282.646,356.646 "
   id="polygon216" />
		<path
   d="m 201.186,31.99 73.46,73.393 V 348.647 H 59.791 V 31.99 h 141.395 m 6.623,-16 H 43.791 V 364.647 H 290.645 V 98.75 Z"
   id="path218" />
	</g>
	<g
   id="contour_2-5">
		<polygon
   fill="#ffffff"
   points="51.791,356.646 51.791,23.99 204.497,23.99 206.309,25.8 206.309,100.327 280.904,100.327 282.646,102.066 282.646,356.646 "
   id="polygon221" />
		<path
   d="m 198.309,31.99 v 60.337 16 h 16 60.337 v 240.32 H 59.791 V 31.99 h 138.518 m 9.5,-16 H 43.791 V 364.647 H 290.645 V 98.75 l -6.43,-6.424 H 214.308 V 22.484 Z"
   id="path223" />
	</g>
	<g
   id="triangle-6">
		<polygon
   points="219.643,87.75 219.643,48.667 258.309,86.38 258.309,87.75 "
   id="polygon226" />
		<path
   d="m 227.643,67.646 12.41,12.104 h -12.41 V 67.646 M 222.641,40.417 H 211.643 V 95.75 h 54.666 V 83.008 Z"
   id="path228" />
	</g>
	<g
   id="green_square">
		<polygon
   fill="#86bc40"
   points="22.544,284.49 22.544,167.682 37.291,152.935 37.291,171.489 297.146,171.489 297.146,152.935 311.893,167.682 311.893,284.49 "
   id="polygon231" />
		<path
   fill="#86bc40"
   d="m 303.646,168.627 1.747,1.747 V 277.99 H 29.044 V 170.374 l 1.747,-1.747 v 9.362 h 13 246.854 13 v -9.362 m -12.999,-31.385 v 27.747 H 43.791 V 137.242 L 16.044,164.989 V 290.99 H 318.393 V 164.989 Z"
   id="path233" />
	</g>
	<rect
   x="30.112"
   y="191.657"
   fill="none"
   width="279.547"
   height="73.426003"
   id="rect236" />
	<text
   id="EPUB"
   transform="translate(30.1118,263.2559)"
   fill="#ffffff"
   font-family="'DejaVu Sans'"
   font-weight="bold"
   font-size="90px">EPUB</text>
</g></g></g></g></g></g></svg>
